<?xml version="1.0" encoding="iso-8859-1"?>
<!-- Generator: Adobe Illustrator 19.0.0, SVG Export Plug-In . SVG Version: 6.00 Build 0)  -->
<svg version="1.1" id="Layer_1" xmlns="http://www.w3.org/2000/svg" xmlns:xlink="http://www.w3.org/1999/xlink" x="0px" y="0px"
	 viewBox="0 0 496 496" style="enable-background:new 0 0 496 496;" xml:space="preserve">
<g>
	<g>
		<g>
			<path d="M208,64c0-35.288-28.712-64-64-64c-35.288,0-64,28.712-64,64H0v432h496V64H208z M256,80h192v368H256V80z M144,16
				c26.472,0,48,21.528,48,48c0,18.384-10.768,35.384-27.44,43.312l-4.56,2.176V128h-32v-18.512l-4.56-2.168
				C106.768,99.384,96,82.384,96,64C96,37.528,117.528,16,144,16z M112,144v32h24v32h16v-32h24v-32h16v-16h-16v-8.64
				c3.624-2.104,6.904-4.64,10.008-7.36H208v112H80V112h21.992c3.096,2.72,6.384,5.256,10.008,7.36V128H96v16H112z M128,160v-16h32
				v16H128z M48,80h34.104c1.472,5.624,3.664,11.008,6.568,16H64v144h160V96h-24.672c2.896-4.992,5.096-10.376,6.568-16H240v368H48
				V80z M480,480H16V80h16v384h432V80h16V480z"/>
			<path d="M272,432h160V304H272V432z M288,320h128v96H288V320z"/>
			<rect x="64" y="256" width="160" height="16"/>
			<rect x="96" y="288" width="128" height="16"/>
			<rect x="64" y="288" width="16" height="16"/>
			<rect x="64" y="320" width="160" height="16"/>
			<rect x="64" y="352" width="160" height="16"/>
			<rect x="64" y="384" width="160" height="16"/>
			<rect x="208" y="416" width="16" height="16"/>
			<rect x="64" y="416" width="128" height="16"/>
			<path d="M386.344,101.656l18.984,18.984c-39.224,3.104-75.416,21.728-100.584,52.496C283.632,198.928,272,231.504,272,264.848
				V288h16v-23.152c0-29.664,10.344-58.64,29.128-81.592c21.824-26.68,52.968-43.176,86.848-46.544l-17.632,17.632l11.312,11.312
				L435.312,128l-37.656-37.656L386.344,101.656z"/>
			<path d="M296,144c13.232,0,24-10.768,24-24s-10.768-24-24-24s-24,10.768-24,24S282.768,144,296,144z M296,112
				c4.408,0,8,3.584,8,8s-3.592,8-8,8c-4.408,0-8-3.584-8-8S291.592,112,296,112z"/>
			<path d="M408,192c-13.232,0-24,10.768-24,24s10.768,24,24,24s24-10.768,24-24S421.232,192,408,192z M408,224
				c-4.408,0-8-3.584-8-8s3.592-8,8-8c4.408,0,8,3.584,8,8S412.408,224,408,224z"/>
			<polygon points="317.656,285.656 332,271.312 346.344,285.656 357.656,274.344 343.312,260 357.656,245.656 346.344,234.344 
				332,248.688 317.656,234.344 306.344,245.656 320.688,260 306.344,274.344 			"/>
			<path d="M144,88c13.232,0,24-10.768,24-24s-10.768-24-24-24s-24,10.768-24,24S130.768,88,144,88z M144,56c4.408,0,8,3.584,8,8
				s-3.592,8-8,8s-8-3.584-8-8S139.592,56,144,56z"/>
		</g>
	</g>
</g>
<g>
</g>
<g>
</g>
<g>
</g>
<g>
</g>
<g>
</g>
<g>
</g>
<g>
</g>
<g>
</g>
<g>
</g>
<g>
</g>
<g>
</g>
<g>
</g>
<g>
</g>
<g>
</g>
<g>
</g>
</svg>
